<svg xmlns="http://www.w3.org/2000/svg" width="301" height="299" viewBox="0 0 301 299">
  <metadata><?xpacket begin="﻿" id="W5M0MpCehiHzreSzNTczkc9d"?>
<x:xmpmeta xmlns:x="adobe:ns:meta/" x:xmptk="Adobe XMP Core 5.6-c138 79.159824, 2016/09/14-01:09:01        ">
   <rdf:RDF xmlns:rdf="http://www.w3.org/1999/02/22-rdf-syntax-ns#">
      <rdf:Description rdf:about=""/>
   </rdf:RDF>
</x:xmpmeta>
                                                                                                    
                                                                                                    
                                                                                                    
                                                                                                    
                                                                                                    
                                                                                                    
                                                                                                    
                                                                                                    
                                                                                                    
                                                                                                    
                                                                                                    
                                                                                                    
                                                                                                    
                                                                                                    
                                                                                                    
                                                                                                    
                                                                                                    
                                                                                                    
                                                                                                    
                                                                                                    
                           
<?xpacket end="w"?></metadata>
<defs>
    <style>
      .cls-1 {
        fill-rule: evenodd;
      }
    </style>
  </defs>
  <path id="Fond_1" data-name="Fond 1" class="cls-1" d="M134,5c28.2-.448,46.359,3.048,67,8v4c-4.957,5.642-5.7,21.157-14,23-3.915-3.071-9.262-2.552-15-4-26.652-6.725-55.423,1.273-74,11C58.682,67.587,18.282,119.763,39,183c5.4,16.48,14.532,30.445,24,43,24.667,32.709,86.924,50.338,136,29,44.382-19.3,78.048-69.968,64-135h1c5.234,3.36,21.519,1.134,29,1v1h1c0.531,14.791,4.754,33.31,1,49-13.556,56.656-40.676,91.294-90,112-22.189,9.315-61.865,16.284-91,7-17.248-5.5-34.424-12.46-48-22-36.6-25.723-77.642-91.1-56-158,7.233-22.356,18.342-40.2,31-57,13.088-17.367,41.616-33.843,64-42C112.535,8.254,127.8,8.913,134,5ZM270,58c5.9-.077,8.791.978,13,2,8.033,11.909,5.776,16.058-3,25-5.037.313-7.6,1.477-11-1-4.508-1.435-5.132-4.162-8-7a62.54,62.54,0,0,1,1-13A50.65,50.65,0,0,0,270,58Z"/>
</svg>
